<svg id="logo" width="371" height="131" viewBox="0 0 371 131" xmlns="http://www.w3.org/2000/svg">
        <path d="M54.5545 81.1327C53.6183 80.431 52.2934 80.6697 51.5367 81.562C50.1172 83.2359 48.4352 84.5945 46.4908 85.6377C43.9182 87.018 40.9781 87.7542 37.6704 87.7542C34.7303 87.7542 32.0658 87.2021 29.4932 86.0058C26.9206 84.8096 24.8074 83.1533 22.8779 81.0368C21.0403 78.9204 19.5702 76.4359 18.4677 73.5834C17.5875 71.3061 17.0587 68.7943 16.8811 66.1416C16.806 65.0188 15.9017 64.1055 14.7764 64.1055H2.03743C0.912188 64.1055 -0.00468713 65.0183 0.0410627 66.1426C0.248137 71.2315 1.23561 75.8895 2.94013 80.1167C4.86959 84.9016 7.62597 88.9504 11.2093 92.3551C14.7007 95.7598 18.9271 98.3363 23.7967 100.085C28.6663 101.925 33.9034 102.753 39.6918 102.753C44.7451 102.753 49.7066 101.741 54.4843 99.6245C58.659 97.7752 62.2023 95.0829 65.1142 91.5475C65.8208 90.6898 65.624 89.4285 64.7348 88.7621L54.5545 81.1327Z"></path>
        <path d="M59.0808 30.9938C57.0594 29.6135 54.9462 28.5093 52.833 27.6811C50.6279 26.8529 48.4228 26.2088 46.2177 25.8407C45.7717 25.7595 45.3437 25.6962 44.9178 25.643C43.9636 25.5236 43.0739 26.1293 42.7891 27.0478L39.4754 37.7341C39.077 39.019 40.0143 40.3218 41.3476 40.5003C43.1154 40.737 44.7293 41.1687 46.2177 41.8519C47.9092 42.5973 49.4015 43.6422 50.7311 44.9129C51.5316 45.678 52.7828 45.801 53.6402 45.1002L63.0165 37.4359C63.8875 36.7239 64.0219 35.4346 63.2471 34.6189C61.9579 33.2618 60.5692 32.0779 59.0808 30.9938Z"></path>
        <path d="M19.4839 45.2454C25.2179 45.2454 29.8662 40.59 29.8662 34.8473C29.8662 29.1046 25.2179 24.4492 19.4839 24.4492C13.7499 24.4492 9.10156 29.1046 9.10156 34.8473C9.10156 40.59 13.7499 45.2454 19.4839 45.2454Z"></path>
        <path d="M82.5894 103C81.856 103 81.1958 102.743 80.6091 102.23C80.0956 101.643 79.8389 100.983 79.8389 100.249V27.6355C79.8389 26.8286 80.0956 26.1685 80.6091 25.6551C81.1958 25.1417 81.856 24.8849 82.5894 24.8849H96.6722C97.479 24.8849 98.1391 25.1417 98.6525 25.6551C99.166 26.1685 99.4227 26.8286 99.4227 27.6355V52.1702C103.824 47.1826 109.618 44.6888 116.806 44.6888C121.06 44.6888 124.838 45.6423 128.138 47.5493C131.512 49.4563 134.153 52.2802 136.06 56.0209C137.967 59.7617 138.92 64.2725 138.92 69.5536V100.249C138.92 100.983 138.664 101.643 138.15 102.23C137.637 102.743 136.977 103 136.17 103H121.977C121.244 103 120.583 102.743 119.997 102.23C119.483 101.643 119.227 100.983 119.227 100.249V70.2137C119.227 66.7663 118.383 64.1258 116.696 62.2922C115.082 60.3851 112.699 59.4316 109.545 59.4316C106.391 59.4316 103.897 60.3851 102.063 62.2922C100.303 64.1258 99.4227 66.7663 99.4227 70.2137V100.249C99.4227 101.056 99.166 101.716 98.6525 102.23C98.1391 102.743 97.479 103 96.6722 103H82.5894ZM155.136 37.5374C154.33 37.5374 153.669 37.2807 153.156 36.7672C152.643 36.2538 152.386 35.5937 152.386 34.7869V24.8849C152.386 24.0781 152.643 23.418 153.156 22.9046C153.669 22.3911 154.33 22.1344 155.136 22.1344H168.339C169.146 22.1344 169.806 22.3911 170.319 22.9046C170.833 23.418 171.089 24.0781 171.089 24.8849V34.7869C171.089 35.5937 170.833 36.2538 170.319 36.7672C169.806 37.2807 169.146 37.5374 168.339 37.5374H155.136ZM155.246 103C154.44 103 153.779 102.743 153.266 102.23C152.753 101.716 152.496 101.056 152.496 100.249V48.5395C152.496 47.7327 152.753 47.0726 153.266 46.5591C153.779 46.0457 154.44 45.789 155.246 45.789H168.229C169.036 45.789 169.696 46.0457 170.209 46.5591C170.723 47.0726 170.979 47.7327 170.979 48.5395V100.249C170.979 100.983 170.723 101.643 170.209 102.23C169.696 102.743 169.036 103 168.229 103H155.246ZM187.827 123.904C187.094 123.904 186.434 123.647 185.847 123.134C185.333 122.62 185.077 121.96 185.077 121.153V48.5395C185.077 47.7327 185.333 47.0726 185.847 46.5591C186.434 46.0457 187.094 45.789 187.827 45.789H200.26C201.067 45.789 201.727 46.0457 202.24 46.5591C202.754 47.0726 203.01 47.7327 203.01 48.5395V52.5003C206.971 47.2926 212.655 44.6888 220.064 44.6888C227.252 44.6888 232.863 46.9259 236.897 51.4001C240.931 55.8742 243.131 62.1821 243.498 70.3237C243.571 71.2772 243.608 72.6341 243.608 74.3945C243.608 76.1548 243.571 77.5118 243.498 78.4653C243.205 86.3868 241.004 92.658 236.897 97.2789C232.789 101.826 227.178 104.1 220.064 104.1C212.875 104.1 207.521 101.643 204 96.7288V121.153C204 121.96 203.744 122.62 203.23 123.134C202.717 123.647 202.057 123.904 201.25 123.904H187.827ZM214.122 89.3574C217.57 89.3574 220.027 88.3305 221.494 86.2768C223.034 84.223 223.914 81.3992 224.134 77.8051C224.281 76.3382 224.354 75.2013 224.354 74.3945C224.354 73.5877 224.281 72.4508 224.134 70.9838C223.914 67.3898 223.034 64.5659 221.494 62.5122C220.027 60.4585 217.57 59.4316 214.122 59.4316C210.748 59.4316 208.255 60.4951 206.641 62.6222C205.101 64.6759 204.22 67.3531 204 70.6538L203.89 74.7246L204 78.9054C204.147 81.9126 205.064 84.4064 206.751 86.3868C208.438 88.3672 210.895 89.3574 214.122 89.3574ZM258.335 123.904C257.602 123.904 256.942 123.647 256.355 123.134C255.842 122.62 255.585 121.96 255.585 121.153V48.5395C255.585 47.7327 255.842 47.0726 256.355 46.5591C256.942 46.0457 257.602 45.789 258.335 45.789H270.768C271.575 45.789 272.235 46.0457 272.748 46.5591C273.262 47.0726 273.518 47.7327 273.518 48.5395V52.5003C277.479 47.2926 283.164 44.6888 290.572 44.6888C297.76 44.6888 303.371 46.9259 307.405 51.4001C311.439 55.8742 313.639 62.1821 314.006 70.3237C314.079 71.2772 314.116 72.6341 314.116 74.3945C314.116 76.1548 314.079 77.5118 314.006 78.4653C313.713 86.3868 311.512 92.658 307.405 97.2789C303.297 101.826 297.686 104.1 290.572 104.1C283.384 104.1 278.029 101.643 274.509 96.7288V121.153C274.509 121.96 274.252 122.62 273.738 123.134C273.225 123.647 272.565 123.904 271.758 123.904H258.335ZM284.63 89.3574C288.078 89.3574 290.535 88.3305 292.002 86.2768C293.542 84.223 294.422 81.3992 294.642 77.8051C294.789 76.3382 294.862 75.2013 294.862 74.3945C294.862 73.5877 294.789 72.4508 294.642 70.9838C294.422 67.3898 293.542 64.5659 292.002 62.5122C290.535 60.4585 288.078 59.4316 284.63 59.4316C281.256 59.4316 278.763 60.4951 277.149 62.6222C275.609 64.6759 274.729 67.3531 274.509 70.6538L274.399 74.7246L274.509 78.9054C274.655 81.9126 275.572 84.4064 277.259 86.3868C278.946 88.3672 281.403 89.3574 284.63 89.3574ZM328.844 103C328.037 103 327.377 102.743 326.863 102.23C326.35 101.716 326.093 101.056 326.093 100.249V48.5395C326.093 47.7327 326.35 47.0726 326.863 46.5591C327.377 46.0457 328.037 45.789 328.844 45.789H341.496C342.303 45.789 342.963 46.0824 343.476 46.6691C344.063 47.1826 344.357 47.806 344.357 48.5395V52.9404C348.391 48.1728 353.818 45.789 360.64 45.789H365.481C366.287 45.789 366.948 46.0457 367.461 46.5591C367.974 47.0726 368.231 47.7327 368.231 48.5395V59.8717C368.231 60.6052 367.974 61.2653 367.461 61.8521C366.948 62.3655 366.287 62.6222 365.481 62.6222H354.809C351.801 62.6222 349.454 63.4657 347.767 65.1527C346.154 66.7663 345.347 69.0768 345.347 72.084V100.249C345.347 101.056 345.053 101.716 344.467 102.23C343.953 102.743 343.293 103 342.486 103H328.844Z"></path>
      </svg>
