<svg width="39" height="37" viewBox="0 0 39 37" xmlns="http://www.w3.org/2000/svg">
<path id="home-link-icon" d="M0.707031 33.9922C0.707031 34.6302 0.882812 35.125 1.23438 35.4766C1.58594 35.8281 2.07422 36.0039 2.69922 36.0039C3.12891 36.0039 3.61068 35.8542 4.14453 35.5547L12.0742 31.2578V0.964844C11.9049 1.02995 11.7292 1.10807 11.5469 1.19922C11.3776 1.29036 11.2018 1.38802 11.0195 1.49219L2.23047 6.57031C1.72266 6.85677 1.33854 7.20833 1.07812 7.625C0.830729 8.04167 0.707031 8.54948 0.707031 9.14844V33.9922ZM14.457 30.9648L23.7148 36.2383C23.8711 36.3164 24.0143 36.3815 24.1445 36.4336C24.2878 36.4987 24.4245 36.5573 24.5547 36.6094V6.66797L15.5117 1.14062C15.3424 1.03646 15.1667 0.951823 14.9844 0.886719C14.8151 0.808594 14.6393 0.74349 14.457 0.691406V30.9648ZM26.957 36.5508C27.0482 36.5117 27.1393 36.4661 27.2305 36.4141C27.3346 36.375 27.4388 36.3294 27.543 36.2773L37.0938 30.8086C37.6146 30.5091 37.9987 30.151 38.2461 29.7344C38.4935 29.3177 38.6172 28.8164 38.6172 28.2305V3.38672C38.6172 2.72266 38.4414 2.22135 38.0898 1.88281C37.7383 1.54427 37.2565 1.375 36.6445 1.375C36.2018 1.375 35.7135 1.52474 35.1797 1.82422L26.957 6.375V36.5508Z" fill="black"/>
</svg>
