<svg width="13" height="12" viewBox="0 0 13 12" fill="none" xmlns="http://www.w3.org/2000/svg">
<path d="M6.60352 11.6113C7.37305 11.6113 8.0957 11.4648 8.77148 11.1719C9.44727 10.8789 10.043 10.4746 10.5586 9.95898C11.0781 9.44336 11.4844 8.84766 11.7773 8.17188C12.0703 7.49219 12.2168 6.76758 12.2168 5.99805C12.2168 5.23242 12.0684 4.51172 11.7715 3.83594C11.4785 3.15625 11.0723 2.55859 10.5527 2.04297C10.0371 1.52344 9.44141 1.11719 8.76562 0.824219C8.08984 0.53125 7.36719 0.384766 6.59766 0.384766C5.83203 0.384766 5.11133 0.53125 4.43555 0.824219C3.75977 1.11719 3.16211 1.52344 2.64258 2.04297C2.12695 2.55859 1.72266 3.15625 1.42969 3.83594C1.13672 4.51172 0.990234 5.23242 0.990234 5.99805C0.990234 6.76758 1.13672 7.49219 1.42969 8.17188C1.72656 8.84766 2.13281 9.44336 2.64844 9.95898C3.16406 10.4746 3.75977 10.8789 4.43555 11.1719C5.11133 11.4648 5.83398 11.6113 6.60352 11.6113ZM6.60352 10.7617C5.94336 10.7617 5.32422 10.6387 4.74609 10.3926C4.17188 10.1465 3.66797 9.80664 3.23438 9.37305C2.80078 8.93555 2.46094 8.42969 2.21484 7.85547C1.96875 7.27734 1.8457 6.6582 1.8457 5.99805C1.8457 5.3418 1.96875 4.72656 2.21484 4.15234C2.46094 3.57422 2.80078 3.06836 3.23438 2.63477C3.66797 2.19727 4.17188 1.85547 4.74609 1.60938C5.32031 1.36328 5.9375 1.24023 6.59766 1.24023C7.26172 1.24023 7.88086 1.36328 8.45508 1.60938C9.0293 1.85547 9.5332 2.19727 9.9668 2.63477C10.4043 3.06836 10.7461 3.57422 10.9922 4.15234C11.2383 4.72656 11.3613 5.3418 11.3613 5.99805C11.3652 6.6582 11.2441 7.27734 10.998 7.85547C10.752 8.42969 10.4102 8.93555 9.97266 9.37305C9.53906 9.80664 9.0332 10.1465 8.45508 10.3926C7.88086 10.6387 7.26367 10.7617 6.60352 10.7617ZM6.59766 7C6.85156 7 6.98047 6.86328 6.98438 6.58984L7.06055 3.6543C7.06445 3.52148 7.01953 3.41211 6.92578 3.32617C6.83594 3.24023 6.72461 3.19727 6.5918 3.19727C6.45508 3.19727 6.3418 3.24023 6.25195 3.32617C6.16602 3.4082 6.125 3.51562 6.12891 3.64844L6.19336 6.58984C6.20117 6.86328 6.33594 7 6.59766 7ZM6.59766 8.76367C6.75 8.76367 6.88086 8.71094 6.99023 8.60547C7.10352 8.5 7.16016 8.37109 7.16016 8.21875C7.16016 8.06641 7.10352 7.9375 6.99023 7.83203C6.88086 7.72266 6.75 7.66797 6.59766 7.66797C6.44141 7.66797 6.30664 7.72266 6.19336 7.83203C6.08398 7.9375 6.0293 8.06641 6.0293 8.21875C6.0293 8.36719 6.08594 8.49609 6.19922 8.60547C6.3125 8.71094 6.44531 8.76367 6.59766 8.76367Z" fill="#AA272F"/>
</svg>
