<svg width="44" height="40" viewBox="0 0 44 40" fill="none" xmlns="http://www.w3.org/2000/svg">
<path d="M29.9453 39.2695H40.5508C41.4753 39.2695 42.1979 38.9831 42.7188 38.4102C43.2526 37.8372 43.5195 37.0495 43.5195 36.0469V12.7656C43.5195 11.776 43.2526 10.9948 42.7188 10.4219C42.1979 9.84896 41.4753 9.5625 40.5508 9.5625H30.8047V36.0469C30.8047 36.6589 30.7331 37.2318 30.5898 37.7656C30.4466 38.2995 30.2318 38.8008 29.9453 39.2695ZM34.9648 18.6836V15.6562C34.9648 15.2396 35.1667 15.0312 35.5703 15.0312H38.6953C39.112 15.0312 39.3203 15.2396 39.3203 15.6562V18.6836C39.3203 19.1133 39.112 19.3281 38.6953 19.3281H35.5703C35.1667 19.3281 34.9648 19.1133 34.9648 18.6836ZM34.9648 25.9492V22.9023C34.9648 22.4857 35.1667 22.2773 35.5703 22.2773H38.6953C39.112 22.2773 39.3203 22.4857 39.3203 22.9023V25.9492C39.3203 26.3529 39.112 26.5547 38.6953 26.5547H35.5703C35.1667 26.5547 34.9648 26.3529 34.9648 25.9492ZM34.9648 33.1758V30.1289C34.9648 29.7122 35.1667 29.5039 35.5703 29.5039H38.6953C39.112 29.5039 39.3203 29.7122 39.3203 30.1289V33.1758C39.3203 33.5924 39.112 33.8008 38.6953 33.8008H35.5703C35.1667 33.8008 34.9648 33.5924 34.9648 33.1758ZM0.707031 36.0469C0.707031 37.0495 0.967448 37.8372 1.48828 38.4102C2.02214 38.9831 2.7513 39.2695 3.67578 39.2695H25.4727C26.3841 39.2695 27.1068 38.9831 27.6406 38.4102C28.1745 37.8372 28.4414 37.0495 28.4414 36.0469V3.3125C28.4414 2.32292 28.1745 1.54167 27.6406 0.96875C27.1068 0.395833 26.3841 0.109375 25.4727 0.109375H3.67578C2.7513 0.109375 2.02214 0.395833 1.48828 0.96875C0.967448 1.54167 0.707031 2.32292 0.707031 3.3125V36.0469ZM8.34375 36.5742V30.5781C8.34375 30.1745 8.46745 29.8555 8.71484 29.6211C8.96224 29.3737 9.29427 29.25 9.71094 29.25H19.6914C20.0951 29.25 20.4206 29.3737 20.668 29.6211C20.9154 29.8555 21.0391 30.1745 21.0391 30.5781V36.5742H8.34375ZM7.67969 9.99219V6.33984C7.67969 5.81901 7.92708 5.55859 8.42188 5.55859H12.1719C12.6797 5.55859 12.9336 5.81901 12.9336 6.33984V9.99219C12.9336 10.5 12.6797 10.7539 12.1719 10.7539H8.42188C7.92708 10.7539 7.67969 10.5 7.67969 9.99219ZM16.4492 9.99219V6.33984C16.4492 5.81901 16.6966 5.55859 17.1914 5.55859H20.9414C21.4492 5.55859 21.7031 5.81901 21.7031 6.33984V9.99219C21.7031 10.5 21.4492 10.7539 20.9414 10.7539H17.1914C16.6966 10.7539 16.4492 10.5 16.4492 9.99219ZM7.67969 17.6289V13.9375C7.67969 13.4297 7.92708 13.1758 8.42188 13.1758H12.1719C12.6797 13.1758 12.9336 13.4297 12.9336 13.9375V17.6289C12.9336 18.1237 12.6797 18.3711 12.1719 18.3711H8.42188C7.92708 18.3711 7.67969 18.1237 7.67969 17.6289ZM16.4492 17.6289V13.9375C16.4492 13.4297 16.6966 13.1758 17.1914 13.1758H20.9414C21.4492 13.1758 21.7031 13.4297 21.7031 13.9375V17.6289C21.7031 18.1237 21.4492 18.3711 20.9414 18.3711H17.1914C16.6966 18.3711 16.4492 18.1237 16.4492 17.6289ZM7.67969 25.2461V21.5742C7.67969 21.0664 7.92708 20.8125 8.42188 20.8125H12.1719C12.6797 20.8125 12.9336 21.0664 12.9336 21.5742V25.2461C12.9336 25.7539 12.6797 26.0078 12.1719 26.0078H8.42188C7.92708 26.0078 7.67969 25.7539 7.67969 25.2461ZM16.4492 25.2461V21.5742C16.4492 21.0664 16.6966 20.8125 17.1914 20.8125H20.9414C21.4492 20.8125 21.7031 21.0664 21.7031 21.5742V25.2461C21.7031 25.7539 21.4492 26.0078 20.9414 26.0078H17.1914C16.6966 26.0078 16.4492 25.7539 16.4492 25.2461Z" fill="black"/>
</svg>
