<svg width="38" height="39" viewBox="0 0 38 39" fill="none" xmlns="http://www.w3.org/2000/svg">
<path d="M19.0117 38.3711C21.5768 38.3711 23.9857 37.8828 26.2383 36.9062C28.4909 35.9297 30.4766 34.582 32.1953 32.8633C33.9271 31.1445 35.2812 29.1589 36.2578 26.9062C37.2344 24.6406 37.7227 22.2253 37.7227 19.6602C37.7227 17.1081 37.2279 14.7057 36.2383 12.4531C35.2617 10.1875 33.9076 8.19531 32.1758 6.47656C30.457 4.74479 28.4714 3.39062 26.2188 2.41406C23.9661 1.4375 21.5573 0.949219 18.9922 0.949219C16.4401 0.949219 14.0378 1.4375 11.7852 2.41406C9.53255 3.39062 7.54036 4.74479 5.80859 6.47656C4.08984 8.19531 2.74219 10.1875 1.76562 12.4531C0.789062 14.7057 0.300781 17.1081 0.300781 19.6602C0.300781 22.2253 0.789062 24.6406 1.76562 26.9062C2.75521 29.1589 4.10938 31.1445 5.82812 32.8633C7.54688 34.582 9.53255 35.9297 11.7852 36.9062C14.0378 37.8828 16.4466 38.3711 19.0117 38.3711ZM19.0117 35.5391C16.8112 35.5391 14.7474 35.1289 12.8203 34.3086C10.9062 33.4883 9.22656 32.3555 7.78125 30.9102C6.33594 29.4518 5.20312 27.7656 4.38281 25.8516C3.5625 23.9245 3.15234 21.8607 3.15234 19.6602C3.15234 17.4727 3.5625 15.4219 4.38281 13.5078C5.20312 11.5807 6.33594 9.89453 7.78125 8.44922C9.22656 6.99089 10.9062 5.85156 12.8203 5.03125C14.7344 4.21094 16.7917 3.80078 18.9922 3.80078C21.2057 3.80078 23.2695 4.21094 25.1836 5.03125C27.0977 5.85156 28.7773 6.99089 30.2227 8.44922C31.681 9.89453 32.8203 11.5807 33.6406 13.5078C34.4609 15.4219 34.8711 17.4727 34.8711 19.6602C34.8841 21.8607 34.4805 23.9245 33.6602 25.8516C32.8398 27.7656 31.7005 29.4518 30.2422 30.9102C28.7969 32.3555 27.1107 33.4883 25.1836 34.3086C23.2695 35.1289 21.2122 35.5391 19.0117 35.5391ZM19.0117 31.3789C20.6133 31.3789 22.1172 31.0729 23.5234 30.4609C24.9427 29.849 26.1862 29.0026 27.2539 27.9219C28.3346 26.8411 29.181 25.5977 29.793 24.1914C30.4049 22.7721 30.7109 21.2682 30.7109 19.6797C30.7109 18.0781 30.4049 16.5742 29.793 15.168C29.181 13.7487 28.3346 12.4987 27.2539 11.418C26.1862 10.3372 24.9427 9.49089 23.5234 8.87891C22.1172 8.25391 20.6133 7.94141 19.0117 7.94141C17.4102 7.94141 15.8997 8.25391 14.4805 8.87891C13.0742 9.49089 11.8307 10.3372 10.75 11.418C9.66927 12.4987 8.82292 13.7487 8.21094 15.168C7.59896 16.5742 7.29297 18.0781 7.29297 19.6797C7.29297 21.2682 7.59896 22.7721 8.21094 24.1914C8.83594 25.5977 9.6888 26.8411 10.7695 27.9219C11.8503 29.0026 13.0938 29.849 14.5 30.4609C15.9193 31.0729 17.4232 31.3789 19.0117 31.3789ZM19.0117 28.6836C17.7878 28.6836 16.6289 28.4492 15.5352 27.9805C14.4544 27.4987 13.4974 26.8411 12.6641 26.0078C11.8307 25.1745 11.1797 24.2174 10.7109 23.1367C10.2422 22.043 10.0078 20.8906 10.0078 19.6797C10.0078 18.4427 10.2422 17.2839 10.7109 16.2031C11.1797 15.1094 11.8307 14.1458 12.6641 13.3125C13.4974 12.4792 14.4544 11.8281 15.5352 11.3594C16.6289 10.8776 17.7878 10.6367 19.0117 10.6367C20.2357 10.6367 21.388 10.8776 22.4688 11.3594C23.5625 11.8281 24.5195 12.4792 25.3398 13.3125C26.1732 14.1458 26.8242 15.1094 27.293 16.2031C27.7747 17.2969 28.0156 18.4557 28.0156 19.6797C28.0156 20.9036 27.7747 22.056 27.293 23.1367C26.8242 24.2174 26.1732 25.1745 25.3398 26.0078C24.5195 26.8411 23.569 27.4987 22.4883 27.9805C21.4076 28.4492 20.2487 28.6836 19.0117 28.6836ZM19.0312 24.543C19.9167 24.543 20.7305 24.3281 21.4727 23.8984C22.2148 23.4557 22.8008 22.8633 23.2305 22.1211C23.6732 21.3789 23.8945 20.5586 23.8945 19.6602C23.8945 18.7747 23.6732 17.9609 23.2305 17.2188C22.8008 16.4766 22.2148 15.8906 21.4727 15.4609C20.7305 15.0182 19.9167 14.7969 19.0312 14.7969C18.1328 14.7969 17.3125 15.0182 16.5703 15.4609C15.8411 15.8906 15.2487 16.4766 14.793 17.2188C14.3503 17.9609 14.1289 18.7747 14.1289 19.6602C14.1289 20.5586 14.3503 21.3789 14.793 22.1211C15.2487 22.8633 15.8477 23.4557 16.5898 23.8984C17.332 24.3281 18.1458 24.543 19.0312 24.543Z" fill="black"/>
</svg>
