<svg width="42" height="39" viewBox="0 0 42 39" fill="none" xmlns="http://www.w3.org/2000/svg">
<path d="M11.4297 38.875C11.7552 38.875 12.0612 38.7839 12.3477 38.6016C12.6341 38.4323 12.9727 38.1654 13.3633 37.8008L20.0625 31.7656H32.9531C34.724 31.7786 36.2148 31.4661 37.4258 30.8281C38.6497 30.1771 39.5742 29.2396 40.1992 28.0156C40.8372 26.7786 41.1562 25.2878 41.1562 23.543V9.14844C41.1562 7.39062 40.8372 5.90625 40.1992 4.69531C39.5742 3.47135 38.6497 2.53385 37.4258 1.88281C36.2148 1.23177 34.724 0.90625 32.9531 0.90625H8.91016C7.15234 0.90625 5.66146 1.23177 4.4375 1.88281C3.22656 2.52083 2.30208 3.45182 1.66406 4.67578C1.02604 5.89974 0.707031 7.39062 0.707031 9.14844V23.543C0.707031 25.3008 1.02604 26.7917 1.66406 28.0156C2.30208 29.2266 3.22656 30.1576 4.4375 30.8086C5.66146 31.4466 7.15234 31.7656 8.91016 31.7656H9.90625V37.1172C9.90625 37.651 10.0365 38.0742 10.2969 38.3867C10.5703 38.7122 10.9479 38.875 11.4297 38.875ZM11.0586 10.9844C10.7721 10.9844 10.5312 10.8867 10.3359 10.6914C10.1406 10.4961 10.043 10.2552 10.043 9.96875C10.043 9.69531 10.1406 9.46094 10.3359 9.26562C10.5312 9.07031 10.7721 8.97266 11.0586 8.97266H30.4727C30.7591 8.97266 31 9.07031 31.1953 9.26562C31.3906 9.46094 31.4883 9.69531 31.4883 9.96875C31.4883 10.2552 31.3906 10.4961 31.1953 10.6914C31 10.8867 30.7591 10.9844 30.4727 10.9844H11.0586ZM11.0586 17.1758C10.7721 17.1758 10.5312 17.0781 10.3359 16.8828C10.1406 16.6745 10.043 16.4271 10.043 16.1406C10.043 15.8672 10.1406 15.6328 10.3359 15.4375C10.5312 15.2292 10.7721 15.125 11.0586 15.125H30.4727C30.7591 15.125 31 15.2292 31.1953 15.4375C31.3906 15.6328 31.4883 15.8672 31.4883 16.1406C31.4883 16.4271 31.3906 16.6745 31.1953 16.8828C31 17.0781 30.7591 17.1758 30.4727 17.1758H11.0586ZM11.0586 23.3281C10.7721 23.3281 10.5312 23.2305 10.3359 23.0352C10.1406 22.8398 10.043 22.6055 10.043 22.332C10.043 22.0456 10.1406 21.8047 10.3359 21.6094C10.5312 21.401 10.7721 21.2969 11.0586 21.2969H23.7148C24.0013 21.2969 24.2422 21.401 24.4375 21.6094C24.6458 21.8047 24.75 22.0456 24.75 22.332C24.75 22.6055 24.6458 22.8398 24.4375 23.0352C24.2422 23.2305 24.0013 23.3281 23.7148 23.3281H11.0586Z" fill="black"/>
</svg>
