<svg width="35" height="41" viewBox="0 0 35 41" fill="none" xmlns="http://www.w3.org/2000/svg">
<path d="M10.9844 7.45703C10.9844 8.4987 11.2057 9.46875 11.6484 10.3672C12.0911 11.2656 12.6966 12.0273 13.4648 12.6523C14.2331 13.2643 15.1055 13.6875 16.082 13.9219V26.5C16.082 28.1406 16.1602 29.5273 16.3164 30.6602C16.4857 31.793 16.6875 32.6523 16.9219 33.2383C17.1693 33.8242 17.4036 34.1172 17.625 34.1172C17.8594 34.1172 18.0938 33.8307 18.3281 33.2578C18.5755 32.6719 18.7773 31.8125 18.9336 30.6797C19.1029 29.5339 19.1875 28.1406 19.1875 26.5V13.9219C20.1641 13.6875 21.0365 13.2643 21.8047 12.6523C22.5729 12.0273 23.1784 11.2656 23.6211 10.3672C24.0638 9.46875 24.2852 8.4987 24.2852 7.45703C24.2852 6.23307 23.9857 5.11979 23.3867 4.11719C22.8008 3.10156 22 2.29427 20.9844 1.69531C19.9818 1.09635 18.862 0.796875 17.625 0.796875C16.401 0.796875 15.2878 1.09635 14.2852 1.69531C13.2826 2.29427 12.4818 3.10156 11.8828 4.11719C11.2839 5.11979 10.9844 6.23307 10.9844 7.45703ZM15.7109 7.76953C15.112 7.76953 14.5846 7.54167 14.1289 7.08594C13.6732 6.63021 13.4453 6.09635 13.4453 5.48438C13.4453 4.8724 13.6732 4.34505 14.1289 3.90234C14.5846 3.44661 15.112 3.21875 15.7109 3.21875C16.3359 3.21875 16.8698 3.44661 17.3125 3.90234C17.7682 4.34505 17.9961 4.8724 17.9961 5.48438C17.9961 6.09635 17.7682 6.63021 17.3125 7.08594C16.8698 7.54167 16.3359 7.76953 15.7109 7.76953ZM17.6445 40.6797C20.3659 40.6797 22.7943 40.4714 24.9297 40.0547C27.0781 39.638 28.901 39.0651 30.3984 38.3359C31.8958 37.6068 33.0352 36.7799 33.8164 35.8555C34.5977 34.931 34.9883 33.9609 34.9883 32.9453C34.9883 31.7734 34.5716 30.7188 33.7383 29.7812C32.918 28.8438 31.8503 28.043 30.5352 27.3789C29.2331 26.7148 27.8464 26.207 26.375 25.8555C24.9036 25.5039 23.5299 25.3151 22.2539 25.2891V27.75C23.1914 27.763 24.194 27.8932 25.2617 28.1406C26.3424 28.375 27.3646 28.707 28.3281 29.1367C29.2917 29.5534 30.0794 30.0547 30.6914 30.6406C31.3034 31.2266 31.6094 31.8646 31.6094 32.5547C31.6094 33.6354 31.0039 34.5859 29.793 35.4062C28.582 36.2266 26.9219 36.8711 24.8125 37.3398C22.7031 37.8086 20.3138 38.043 17.6445 38.043C14.9753 38.043 12.5859 37.8086 10.4766 37.3398C8.36719 36.8711 6.70052 36.2266 5.47656 35.4062C4.26562 34.5859 3.66016 33.6354 3.66016 32.5547C3.66016 31.8646 3.96615 31.2266 4.57812 30.6406C5.20312 30.0547 5.99089 29.5534 6.94141 29.1367C7.90495 28.707 8.92708 28.375 10.0078 28.1406C11.1016 27.8932 12.1107 27.763 13.0352 27.75V25.2891C11.7461 25.3151 10.3659 25.5039 8.89453 25.8555C7.4362 26.207 6.05599 26.7148 4.75391 27.3789C3.45182 28.043 2.38411 28.8438 1.55078 29.7812C0.717448 30.7188 0.300781 31.7734 0.300781 32.9453C0.300781 33.9609 0.691406 34.931 1.47266 35.8555C2.25391 36.7799 3.39323 37.6068 4.89062 38.3359C6.38802 39.0651 8.20443 39.638 10.3398 40.0547C12.4883 40.4714 14.9232 40.6797 17.6445 40.6797Z" fill="black"/>
</svg>
