<svg width="45" height="35" viewBox="0 0 45 35" fill="none" xmlns="http://www.w3.org/2000/svg">
<path d="M26.7617 11.3711C26.4492 11.3711 26.1888 11.2734 25.9805 11.0781C25.7852 10.8698 25.6875 10.6159 25.6875 10.3164C25.6875 10.0299 25.7852 9.78906 25.9805 9.59375C26.1888 9.39844 26.4492 9.30078 26.7617 9.30078H36.957C37.2565 9.30078 37.5104 9.39844 37.7188 9.59375C37.9271 9.78906 38.0312 10.0299 38.0312 10.3164C38.0312 10.6159 37.9271 10.8698 37.7188 11.0781C37.5104 11.2734 37.2565 11.3711 36.957 11.3711H26.7617ZM26.7617 18.7539C26.4492 18.7539 26.1888 18.6497 25.9805 18.4414C25.7852 18.2331 25.6875 17.9792 25.6875 17.6797C25.6875 17.3932 25.7852 17.1523 25.9805 16.957C26.1888 16.7487 26.4492 16.6445 26.7617 16.6445H36.957C37.2565 16.6445 37.5104 16.7487 37.7188 16.957C37.9271 17.1523 38.0312 17.3932 38.0312 17.6797C38.0312 17.9792 37.9271 18.2331 37.7188 18.4414C37.5104 18.6497 37.2565 18.7539 36.957 18.7539H26.7617ZM26.7617 26.1172C26.4492 26.1172 26.1888 26.0195 25.9805 25.8242C25.7852 25.6159 25.6875 25.3685 25.6875 25.082C25.6875 24.7826 25.7852 24.5352 25.9805 24.3398C26.1888 24.1315 26.4492 24.0273 26.7617 24.0273H36.957C37.2565 24.0273 37.5104 24.1315 37.7188 24.3398C37.9271 24.5352 38.0312 24.7826 38.0312 25.082C38.0312 25.3685 37.9271 25.6159 37.7188 25.8242C37.5104 26.0195 37.2565 26.1172 36.957 26.1172H26.7617ZM7.32812 26.2148C7.04167 26.2148 6.82682 26.1302 6.68359 25.9609C6.55339 25.7786 6.48828 25.5573 6.48828 25.2969C6.48828 24.8542 6.65104 24.2878 6.97656 23.5977C7.30208 22.8945 7.79688 22.1914 8.46094 21.4883C9.13802 20.7852 9.99089 20.1927 11.0195 19.7109C12.0482 19.2292 13.2591 18.9883 14.6523 18.9883C16.0326 18.9883 17.237 19.2292 18.2656 19.7109C19.2943 20.1927 20.1471 20.7852 20.8242 21.4883C21.5013 22.1914 22.0026 22.8945 22.3281 23.5977C22.6536 24.2878 22.8164 24.8542 22.8164 25.2969C22.8164 25.5573 22.7448 25.7786 22.6016 25.9609C22.4714 26.1302 22.2565 26.2148 21.957 26.2148H7.32812ZM14.6523 17.6992C13.5195 17.6992 12.556 17.276 11.7617 16.4297C10.9674 15.5833 10.5703 14.5221 10.5703 13.2461C10.5703 12.4648 10.7526 11.7422 11.1172 11.0781C11.4948 10.4141 11.9896 9.88672 12.6016 9.49609C13.2135 9.10547 13.8971 8.91016 14.6523 8.91016C15.3945 8.91016 16.0716 9.10547 16.6836 9.49609C17.3086 9.88672 17.8034 10.4141 18.168 11.0781C18.5326 11.7422 18.7148 12.4648 18.7148 13.2461C18.7148 14.5221 18.3177 15.5833 17.5234 16.4297C16.7292 17.276 15.7721 17.6992 14.6523 17.6992ZM6.37109 34.5742H38.4805C40.3685 34.5742 41.7812 34.1055 42.7188 33.168C43.6562 32.2305 44.125 30.8372 44.125 28.9883V6.39062C44.125 4.54167 43.6562 3.14844 42.7188 2.21094C41.7812 1.27344 40.3685 0.804688 38.4805 0.804688H6.37109C4.48307 0.804688 3.0638 1.27344 2.11328 2.21094C1.17578 3.13542 0.707031 4.52865 0.707031 6.39062V28.9883C0.707031 30.8372 1.17578 32.2305 2.11328 33.168C3.0638 34.1055 4.48307 34.5742 6.37109 34.5742Z" fill="black"/>
</svg>
